:SAMPLES-PER-SECOND 30
:FULLY-SPECIFIED
:DEGREES
402
root  56.8212 29.2456 0.316291 17.7065 -44.5851 6.10123
RightUpLeg  -46.1854 -18.9458 5.49665
RightLeg  84.0543 -1.50303 -9.35476
RightFoot  -11.2076 0.121804 1.61901
RightToes  -30.7146 -0.148873 -0.256902
Spine  9.54075 -0.540297 -3.91543
Spine1  16.3748 -0.705723 -6.80504
HEad  20.7642 -22.8097 29.5852
LeftShoulder1  0 -2.42657e-020 -4.95415e-022
LeftArm  -38.2521 -11.5612 -77.903
LeftForeArm  173.369 -35.9207 -6.88739
LeftHand  11.2852 -35.4502 -34.7304
RightShoulder  0 2.42657e-020 1.07489e-018
RightArm  -23.9675 7.22489 81.5139
RightForeArm  44.3591 22.7768 4.22434
RightHand  -0.421259 24.2229 -1.5933
LeftUpLeg  -31.6935 -7.95942 0.343195
LeftLeg  51.5954 -2.16862 -2.40707
LeftFoot  -28.4061 0.396447 1.56629
LeftToes  -29.2706 1.18758e-006 1.19596e-007
403
root  53.9329 30.3981 1.66845 18.5891 -45.2674 2.97963
RightUpLeg  -51.6511 -19.2016 8.46552
RightLeg  76.0641 -3.06329 -9.80452
RightFoot  -11.7624 0.165735 1.98651
RightToes  -30.2182 -0.145426 -0.25348
Spine  7.81021 -0.00629392 -2.74681
Spine1  13.9914 0.552842 -6.26694
HEad  23.1598 -21.5491 26.7722
LeftShoulder1  0 -2.42657e-020 -4.95415e-022
LeftArm  -42.3598 -0.675587 -76.1866
LeftForeArm  174.835 -44.8147 -9.58415
LeftHand  9.81693 -37.7289 -28.5914
RightShoulder  0 2.42657e-020 1.07489e-018
RightArm  -20.4388 -0.660594 80.8798
RightForeArm  45.6357 23.2941 4.33044
RightHand  -0.398891 24.9479 -1.43337
LeftUpLeg  -19.0855 -8.76452 3.04063
LeftLeg  39.0706 -0.839245 -0.601299
LeftFoot  -22.1581 0.0669702 0.342001
LeftToes  -33.054 1.18758e-006 1.19596e-007
404
root  50.9042 31.4899 3.16801 19.0018 -46.9012 0.871124
RightUpLeg  -53.659 -18.0071 11.2352
RightLeg  62.5255 -5.32984 -8.83011
RightFoot  -12.1442 0.17758 2.04691
RightToes  -27.2529 -0.125469 -0.232427
Spine  6.58976 0.0554411 -2.06336
Spine1  12.2694 0.264806 -4.69338
HEad  25.8757 -21.3121 23.6922
LeftShoulder1  0 -2.42657e-020 -4.95415e-022
LeftArm  -45.7564 11.2348 -75.9673
LeftForeArm  174.598 -54.7967 -13.8803
LeftHand  8.98703 -40.0439 -24.7136
RightShoulder  0 2.42657e-020 1.07489e-018
RightArm  -20.018 -8.14806 80.1411
RightForeArm  47.6435 24.1375 4.50519
RightHand  -0.45349 25.5912 -1.62694
LeftUpLeg  -9.40871 -8.63103 4.44141
LeftLeg  31.4062 0.323168 0.165918
LeftFoot  -8.47917 -0.00903006 -0.121823
LeftToes  -47.0413 1.18758e-006 1.19596e-007
405
root  47.9078 32.4688 4.6946 17.9302 -48.1947 1.33423
RightUpLeg  -52.6531 -17.2141 13.2529
RightLeg  44.0129 -6.17252 -5.24353
RightFoot  -9.37221 0.0660206 1.18304
RightToes  -33.4672 -0.168511 -0.275327
Spine  5.86518 0.267046 -1.90728
Spine1  11.2736 0.392286 -3.88413
HEad  26.5691 -22.3455 21.8074
LeftShoulder1  0 -2.42657e-020 -4.95415e-022
LeftArm  -49.6647 18.3973 -77.3421
LeftForeArm  174.664 -59.738 -16.9323
LeftHand  8.51955 -41.1653 -22.8105
RightShoulder  0 2.42657e-020 1.07489e-018
RightArm  -24.3224 -15.3662 80.013
RightForeArm  48.8001 25.0806 4.70512
RightHand  -0.476989 25.9978 -1.69642
LeftUpLeg  -4.29037 -4.46059 5.12943
LeftLeg  29.1185 -3.17828 -1.51411
LeftFoot  8.55036 0.0488622 -0.653635
LeftToes  -54.8843 1.18758e-006 1.19596e-007
406
root  44.8803 33.0612 6.34747 14.1567 -48.0496 4.18596
RightUpLeg  -49.3502 -19.3597 14.7012
RightLeg  26.785 -4.17554 -1.78416
RightFoot  -6.38831 0.000982479 0.395197
RightToes  -40.6028 -0.223317 -0.318502
Spine  5.87088 -0.0219116 -2.11341
Spine1  11.5481 -0.264202 -3.96859
HEad  26.5006 -23.3803 20.1286
LeftShoulder1  0 -2.42657e-020 -4.95415e-022
LeftArm  -56.1298 22.4107 -79.9131
LeftForeArm  176.94 -64.5361 -20.9765
LeftHand  7.55208 -41.6135 -20.0788
RightShoulder  0 2.42657e-020 1.07489e-018
RightArm  -29.9154 -19.8959 80.2976
RightForeArm  48.3933 23.7868 4.42964
RightHand  -0.382639 26.2683 -1.27004
LeftUpLeg  -0.958541 -3.177 5.25824
LeftLeg  30.6488 -8.46056 -4.28488
LeftFoot  22.6363 0.771182 -3.85166
LeftToes  -45.4735 1.18758e-006 1.19596e-007
407
root  41.8322 33.193 8.16084 8.40906 -46.5457 8.59592
RightUpLeg  -46.2213 -22.61 14.1924
RightLeg  17.9918 -4.89477 -1.24645
RightFoot  -4.85853 -7.51947e-005 0.37583
RightToes  -42.1746 -0.236084 -0.327074
Spine  5.87891 -0.676549 -2.682
Spine1  11.7085 -1.4785 -5.00943
HEad  28.4291 -25.3424 18.5433
LeftShoulder1  0 -2.42657e-020 -4.95415e-022
LeftArm  -61.3974 25.5768 -81.484
LeftForeArm  -176.135 -70.2834 -28.5002
LeftHand  7.43807 -41.1972 -19.9965
RightShoulder  0 2.42657e-020 1.07489e-018
RightArm  -35.284 -23.95 80.3012
RightForeArm  48.932 21.9769 4.05178
RightHand  0.0464049 26.3015 0.568761
LeftUpLeg  1.62433 -8.78584 3.00876
LeftLeg  35.3336 -17.2663 -10.373
LeftFoot  33.262 3.50868 -11.7092
LeftToes  -36.9554 1.18758e-006 1.19596e-007
408
root  38.7557 32.8264 9.92639 3.5791 -45.0305 10.7853
RightUpLeg  -42.0092 -20.1131 10.3811
RightLeg  18.6647 -9.22519 -2.45496
RightFoot  -5.25814 0.0229723 0.877951
RightToes  -33.8853 -0.17157 -0.278042
Spine  5.81916 -0.865073 -2.77943
Spine1  11.6145 -1.75417 -5.25335
HEad  31.4372 -28.2112 16.0836
LeftShoulder1  0 -2.42657e-020 -4.95415e-022
LeftArm  -63.182 27.9637 -81.5464
LeftForeArm  -162.126 -76.1541 -44.1122
LeftHand  7.0281 -41.919 -18.5881
RightShoulder  0 2.42657e-020 1.07489e-018
RightArm  -40.1334 -29.2762 79.3901
RightForeArm  51.1861 23.9842 4.46644
RightHand  0.351193 26.8007 1.84447
LeftUpLeg  3.03684 -14.4254 1.00484
LeftLeg  45.0514 -22.7618 -18.8213
LeftFoot  27.4935 3.70694 -15.0706
LeftToes  -37.0186 1.18758e-006 1.19596e-007
409
root  35.6071 32.079 11.4375 0.0782471 -44.3217 11.314
RightUpLeg  -40.1732 -12.4164 6.77237
RightLeg  31.2778 -11.165 -5.78457
RightFoot  -8.88864 0.127225 2.01448
RightToes  -4.89423 -0.0141408 -0.0457329
Spine  5.86069 -0.435576 -2.45592
Spine1  11.6425 -0.87489 -4.57234
HEad  31.7412 -30.7474 14.4605
LeftShoulder1  0 -2.42657e-020 -4.95415e-022
LeftArm  -60.9156 28.7261 -79.6866
LeftForeArm  -136.169 -79.7345 -71.7701
LeftHand  5.9953 -42.7391 -15.6176
RightShoulder  0 2.42657e-020 1.07489e-018
RightArm  -44.236 -33.9189 77.5621
RightForeArm  52.6548 26.1784 4.9371
RightHand  0.29321 27.1424 1.58498
LeftUpLeg  2.50101 -13.7651 2.53176
LeftLeg  53.9117 -19.8641 -22.2158
LeftFoot  22.2055 2.44429 -12.4086
LeftToes  -46.1917 1.18758e-006 1.19596e-007
410
root  32.5437 31.4096 12.7155 -3.4884 -43.0545 10.8694
RightUpLeg  -37.1977 -6.92736 5.75105
RightLeg  43.1584 -12.2926 -9.96525
RightFoot  -9.77235 0.208131 2.81203
RightToes  8.1988 0.0147914 0.0787694
Spine  6.26121 -0.57055 -2.21406
Spine1  12.3905 -1.14467 -4.04766
HEad  32.3245 -32.1225 14.645
LeftShoulder1  0 -2.42657e-020 -4.95415e-022
LeftArm  -56.7256 27.7606 -76.5288
LeftForeArm  -107.695 -79.9898 -102.415
LeftHand  6.1147 -43.7442 -15.5296
RightShoulder  0 2.42657e-020 1.07489e-018
RightArm  -46.0213 -34.4649 75.0106
RightForeArm  54.0611 24.8834 4.65275
RightHand  -0.211464 26.2527 -0.536922
LeftUpLeg  -0.34024 -13.2986 4.87018
LeftLeg  61.9073 -11.7027 -18.1422
LeftFoot  16.8875 0.985199 -6.62944
LeftToes  -47.1769 1.18758e-006 1.19596e-007
411
root  29.6565 31.2165 13.7253 -3.61853 -40.2278 9.63385
RightUpLeg  -32.3182 -8.21586 7.97147
RightLeg  45.4185 -12.9897 -11.3608
RightFoot  -15.7137 0.625047 4.90499
RightToes  13.083 0.0182017 0.126418
Spine  5.99551 -1.49191 -1.92316
Spine1  11.8327 -3.06574 -3.44034
HEad  33.2289 -33.4906 15.7931
LeftShoulder1  0 -2.42657e-020 -4.95415e-022
LeftArm  -51.3417 26.1291 -73.9656
LeftForeArm  -93.8987 -78.8783 -118.579
LeftHand  7.40457 -44.4729 -18.3596
RightShoulder  0 2.42657e-020 1.07489e-018
RightArm  -54.0645 -31.9221 74.2313
RightForeArm  61.2369 20.62 3.75073
RightHand  -0.742736 25.4311 -2.92144
LeftUpLeg  -9.51724 -15.5189 6.99153
LeftLeg  69.814 -4.61622 -10.3243
LeftFoot  8.33253 0.125425 -1.72172
LeftToes  -37.158 1.18758e-006 1.19596e-007
412
root  26.8285 31.4068 14.5819 -3.63855 -39.8757 9.11342
RightUpLeg  -25.7601 -7.21575 10.1667
RightLeg  42.6017 -14.4167 -11.3822
RightFoot  -18.9499 0.986034 6.28088
RightToes  15.1464 0.0181415 0.146604
Spine  5.71097 -1.61085 -1.93923
Spine1  11.2129 -3.38854 -3.28636
HEad  33.6205 -35.0204 18.4051
LeftShoulder1  0 -2.42657e-020 -4.95415e-022
LeftArm  -44.1122 23.4345 -71.6535
LeftForeArm  -85.7379 -77.6845 -127.683
LeftHand  8.98422 -44.8874 -21.9102
RightShoulder  0 2.42657e-020 1.07489e-018
RightArm  -54.5493 -30.8076 74.761
RightForeArm  57.7977 21.2823 3.89252
RightHand  -1.04849 23.7936 -4.60502
LeftUpLeg  -18.4263 -16.2457 7.76129
LeftLeg  73.0259 -1.7618 -4.68062
LeftFoot  0.778426 0.000906792 -0.133496
LeftToes  -26.7063 1.18758e-006 1.19596e-007
